<svg xmlns="http://www.w3.org/2000/svg"
    viewBox="0 0 720.80579 769.69574"
    width="16"
    height="16"
    class="bx--btn__icon"
    style="margin-left: 4px;">


<g id="g1" transform="translate(-149.69922,-106.22143)">
<path d="m 152.3576,320.73563 1.38953,327.02938 c 0,0 2.37037,27.05491 24.68454,43.4023 22.31418,16.34738 295.47893,175.08046 295.47893,175.08046 0,0 37.98325,21.86477 76.01533,-0.16348 26.2409,-15.19877 293.21267,-173.79514 293.21267,-173.79514 0,0 26.37864,-18.12312 26.9508,-44.68762 0.57216,-26.56449 0.38704,-311.62918 0.38704,-311.62918 0,0 -0.75135,-25.71954 -22.65631,-42.2494 C 828.71976,279.30949 770.7193,249.10388 770.7193,249.10388 L 515.08439,124.84092 Z" id="path2" style="display:inline;fill:#002f55;fill-opacity:1"/>
<path d="m 516.63281,106.38086 c -21.83908,-1.47126 -37.65429,7.72461 -37.65429,7.72461 L 224.7207,261.75781 a 50.737995,50.737995 0 0 0 -24.2832,-6.19726 50.737995,50.737995 0 0 0 -50.73828,50.73828 50.737995,50.737995 0 0 0 50.73828,50.73828 50.737995,50.737995 0 0 0 29.75195,-9.79297 c 0.12148,0.0525 0.23551,0.29045 0.36133,0.23047 4.97052,-2.36967 10.17188,0.28906 10.17188,0.28906 0,0 205.46735,119.69659 230.43554,134.37695 24.96818,14.68038 16.32032,45.0625 16.32032,45.0625 l -65.6211,241.37696 c 0,0 -1.44339,13.46738 9.88477,17.05078 11.32816,3.58339 18.55273,-7.05078 18.55273,-7.05078 0,0 78.13367,-238.38128 82.71094,-256.93555 4.57726,-18.55428 21.57812,-29.91601 21.57812,-29.91601 L 827.01367,331.52539 c 0,0 16.02177,-11.11714 4.16992,-25.74805 -11.85185,-14.63091 -24.52148,-8.17382 -24.52148,-8.17382 0,0 -220.52644,125.46645 -248.48047,145.98242 -27.95402,20.51596 -56.10156,3.75976 -56.10156,3.75976 0,0 -243.30156,-139.93369 -248.94141,-146.47265 -5.63985,-6.53895 0.50195,-11.13867 0.50195,-11.13867 0,0 235.20362,-137.38317 246.99415,-142.93165 11.79054,-5.54849 26.125,0.69532 26.125,0.69532 l 133.67382,76.46093 -40.62109,18.90235 186.27734,46.81445 -120.15429,-150.72266 0.32812,56.88868 c 0,0 -113.12477,-69.31352 -146.14648,-83.69922 -8.25543,-3.59643 -16.20468,-5.2713 -23.48438,-5.76172 z" id="path1" style="display:inline;fill:#1fa6e5;fill-opacity:1"/>
<path d="m 599.28912,507.56347 c -1.10296,-0.1656 -2.01024,0.74925 -2.01024,0.74925 0,0 -35.97838,21.26063 -38.95713,22.39587 -2.97874,1.13524 -3.62524,4.72894 -3.62524,4.72894 L 471.67423,809.4402 c 0,0 -0.45607,1.64324 0.56363,2.26445 1.62557,0.9903 3.62609,-0.23462 3.62609,-0.23462 0,0 34.68912,-19.89831 37.86009,-21.4779 3.17095,-1.57961 3.73278,-3.90299 3.73278,-3.90299 l 16.47913,-55.5559 63.30535,-35.73356 c 0,0 5.58744,39.6684 6.17803,44.91959 0.5906,5.25119 5.61159,2.68898 5.61159,2.68898 0,0 32.14727,-17.08792 35.11713,-19.26607 2.96985,-2.17813 1.35595,-7.57331 1.35595,-7.57331 0,0 -42.43755,-202.62204 -44.17048,-206.10977 -0.64986,-1.30791 -1.38261,-1.79626 -2.0444,-1.89563 z m -22.80273,64.10037 14.18201,85.481 c 0,0 1.07487,2.32186 -0.82676,2.99949 -1.90163,0.67763 -42.98939,23.13194 -42.98939,23.13194 z" id="path4" style="display:inline;fill:#ffffff;fill-opacity:1"/>
<path d="m 227.71094,385.28516 c -1.283,0.10212 -2.69656,0.8288 -3.22071,3.33203 l 0.041,243.33203 c 0,0 3.2e-4,3.10572 1.7168,3.71875 1.71647,0.61302 110.99609,64.07617 110.99609,64.07617 0,0 33.10569,17.57978 52.15039,-0.40234 19.0447,-17.98212 15.42466,-88.6752 -36.71484,-123.16407 -0.63094,-0.41734 -1.06751,-0.66751 -1.63672,-1.03125 8.58722,2.3796 21.89334,2.43424 33.41992,-11.05078 25.23694,-29.52484 -15.02978,-95.59561 -47.56641,-115.47851 -20.84628,-12.73901 -106.75,-62.91016 -106.75,-62.91016 0,0 -1.15255,-0.524 -2.43554,-0.42187 z M 271.5293,454.375 c 0,0 32.46598,18.57396 52.36328,31.34961 24.40154,15.66772 22.65611,46.58392 16.41406,53.51953 -6.24204,6.9356 -18.8418,1.32813 -18.8418,1.32813 0,0 -48.0546,-26.52805 -49.11718,-27.26368 -1.06258,-0.73563 -0.81836,-1.47265 -0.81836,-1.47265 z m -0.16211,98.73828 c 0,0 31.7029,17.20305 51.3125,28.95703 26.70293,16.00573 37.04705,48.02862 31.96093,62.70899 -5.08611,14.68037 -22.71484,8.55468 -22.71484,8.55468 0,0 -56.79955,-32.29661 -59.16992,-33.8496 -2.37034,-1.553 -2.28906,-4.00586 -2.28906,-4.00586 z" id="path3" style="display:inline;fill:#ffffff;fill-opacity:1"/>
<path d="m 628.48157,485.72366 28.0892,-17.10783 c 0,0 3.35221,-1.7339 3.93018,0.69356 0.57797,2.42746 0.92475,1.61831 0.92475,2.54306 0,0.92474 27.39564,141.024 27.39564,141.024 l 21.78937,-173.62136 c 0,0 0.86695,-1.6761 2.31187,-2.94763 1.44492,-1.27153 29.37116,-17.20146 29.37116,-17.20146 0,0 3.02427,-2.4521 4.45467,1.83908 1.43039,4.29119 25.82039,145.75179 25.82039,145.75179 l 18.92842,-174.45941 c 0,0 -0.20229,-1.44492 1.8495,-2.86094 2.05178,-1.41602 33.14642,-19.93987 33.14642,-19.93987 0,0 2.08068,-2.42746 4.16136,1.50272 2.08068,3.93018 -29.36073,258.92932 -29.36073,258.92932 0,0 0.80915,3.75678 -3.06323,6.06865 -3.87238,2.31187 -37.19219,21.64488 -37.19219,21.64488 0,0 -4.16136,1.47381 -4.68153,-1.47382 -0.52017,-2.94763 -25.91493,-144.84403 -25.91493,-144.84403 l -21.82517,172.41307 c 0,0 0.20229,1.87839 -2.10958,3.67009 -2.31187,1.7917 -31.96159,18.84173 -31.96159,18.84173 0,0 -5.11501,2.36967 -6.09755,-2.80314 -0.98254,-5.17281 -42.79283,-205.81268 -42.79283,-205.81268 0,0 -2.08429,-8.70498 1.14432,-10.66667 3.22861,-1.96169 1.68208,-1.18311 1.68208,-1.18311 z" id="path9" style="fill:#ffffff;fill-opacity:1"/>
</g>
</svg>